<?xml version="1.0" encoding="utf-8"?>
<!-- Generator: Adobe Illustrator 17.1.0, SVG Export Plug-In . SVG Version: 6.00 Build 0)  -->
<!DOCTYPE svg PUBLIC "-//W3C//DTD SVG 1.1//EN" "http://www.w3.org/Graphics/SVG/1.1/DTD/svg11.dtd">
<svg version="1.1" id="Capa_1" xmlns="http://www.w3.org/2000/svg" xmlns:xlink="http://www.w3.org/1999/xlink" x="0px" y="0px"
	 viewBox="184.8 0 910.3 960" enable-background="new 184.8 0 910.3 960" xml:space="preserve">
<g opacity="0.5">
	<path fill="none" stroke="#E6E6E6" stroke-width="3" stroke-linecap="round" stroke-linejoin="round" stroke-miterlimit="10" d="
		M220.1,109.1c4.6-36.9,36.1-65.4,74.3-65.4c36.2,0,66.4,25.7,73.3,59.8"/>
	<path fill="none" stroke="#E6E6E6" stroke-width="3" stroke-linecap="round" stroke-linejoin="round" stroke-miterlimit="10" d="
		M379.3,104.6c-0.9-1.9-3.2-2.6-5.1-1.7l0,0l0,0l0,0l0,0l-1.1,0.5v-0.1l3.4-2.2l0,0c1.7-1.2,2.3-3.5,1.1-5.2
		c-1.2-1.7-3.5-2.3-5.2-1.2l0,0l0,0l0,0l0,0l-1.1,0.7v-0.1l3.1-2.6l0,0c1.6-1.3,1.9-3.8,0.5-5.4c-1.3-1.6-3.8-1.9-5.4-0.5l0,0l0,0
		l0,0l0,0l-0.9,0.8v-0.1l2.8-2.8l0,0c1.5-1.5,1.5-3.9,0-5.4c-1.5-1.5-3.9-1.5-5.4,0l0,0l0,0l0,0l0,0l-0.8,0.8v-0.1l2.6-3.1l0,0
		c1.3-1.6,1.1-4-0.5-5.4c-1.6-1.3-4-1.1-5.4,0.5l0,0l0,0l0,0l0,0l-0.8,0.9c0,0,0-0.1-0.1-0.1l2.2-3.4l0,0c1.1-1.7,0.7-4.2-1.2-5.2
		c-1.7-1.2-4.2-0.7-5.2,1.1l0,0l0,0l0,0l0,0l-0.7,0.9c0,0,0-0.1-0.1-0.1l1.9-3.5l0,0c0.9-1.9,0.1-4.2-1.7-5.1
		c-1.9-0.9-4.2-0.3-5.1,1.6l0,0l0,0l0,0l0,0l-0.5,1.1c0,0,0,0-0.1-0.1l1.5-3.8l0,0c0.7-2-0.3-4.2-2.2-5c-2-0.8-4.2,0.1-5,2.2l0,0
		l0,0l0,0l0,0l-0.4,1.1c0,0-0.1,0-0.1-0.1l1.1-3.9l0,0c0.5-2-0.7-4.2-2.7-4.7c-2-0.5-4.2,0.7-4.7,2.7l0,0l0,0l0,0l0,0l-0.3,1.2
		c0,0-0.1,0-0.1-0.1l0.7-3.9l0,0c0.3-2-1.1-4-3.2-4.4c-2-0.4-4,1.1-4.4,3.1l0,0l0,0l0,0l0,0l-0.1,1.2h-0.1l0.3-4l0,0
		c0.1-2.2-1.5-3.9-3.6-4c-2.2-0.1-3.9,1.5-4,3.5l0,0l0,0l0,0l0,0l-0.1,1.2h-0.1l-0.1-4l0,0c-0.1-2.2-1.9-3.8-4-3.6s-3.8,1.9-3.6,3.9
		l0,0l0,0l0,0l0,0v1.2h-0.1l-0.5-4l0,0c-0.4-2-2.3-3.5-4.3-3.2c-2.2,0.3-3.5,2.3-3.2,4.3l0,0l0,0l0,0l0,0l0.1,1.2h-0.1l-0.9-3.9l0,0
		c-0.5-2-2.7-3.2-4.7-2.7c-2,0.5-3.2,2.6-2.8,4.6l0,0l0,0l0,0l0,0l0.3,1.2h-0.1l-1.3-3.8l0,0c-0.8-2-3-3-5-2.3c-2,0.7-3,3-2.3,4.8
		l0,0l0,0l0,0l0,0l0.4,1.2h-0.1l-1.7-3.6l0,0c-0.9-1.9-3.2-2.7-5.1-1.7c-1.9,0.9-2.7,3.2-1.7,5.1l0,0l0,0l0,0l0,0l0.5,1.1h-0.1
		l-2.2-3.4l0,0c-1.2-1.7-3.5-2.3-5.2-1.2c-1.7,1.1-2.3,3.5-1.2,5.2l0,0l0,0l0,0l0,0l0.7,1.1h-0.1l-2.4-3.1l0,0
		c-1.3-1.6-3.8-1.9-5.4-0.7c-1.6,1.3-2,3.6-0.7,5.4l0,0l0,0l0,0l0,0l0.8,0.9h-0.1l-2.8-2.8l0,0c-1.5-1.5-3.9-1.5-5.4,0
		c-1.5,1.5-1.6,3.9-0.1,5.4l0,0l0,0l0,0l0,0l0.8,0.8h-0.1l-3.1-2.6l0,0c-1.6-1.3-4-1.1-5.4,0.5s-1.2,4,0.4,5.4l0,0l0,0l0,0l0,0
		l0.9,0.8c0,0-0.1,0-0.1,0.1l-3.4-2.3l0,0c-1.7-1.2-4.2-0.7-5.2,1.1c-1.2,1.7-0.7,4.2,0.9,5.4l0,0l0,0l0,0l0,0l0.9,0.7
		c0,0,0,0-0.1,0.1l-3.5-1.9l0,0c-1.9-0.9-4.2-0.3-5.1,1.6c-0.9,1.9-0.3,4.2,1.5,5.2l0,0l0,0l0,0l0,0l1.1,0.5c0,0,0,0-0.1,0.1
		l-4.2,0.5l0,0c-2-0.8-4.2,0.1-5,2.2c-0.8,2,0.1,4.2,2,5l0,0l0,0l0,0l0,0l1.1,0.4c0,0,0,0.1-0.1,0.1l-3.9-1.1l0,0
		c-2-0.5-4.2,0.7-4.7,2.7c-0.5,2,0.5,4.2,2.6,4.7l0,0l0,0l0,0l0,0l1.1,0.3c0,0,0,0.1-0.1,0.1l-3.9-0.7l0,0c-2-0.4-4,1.1-4.4,3.1
		c-0.4,2,0.9,4,3.1,4.4l0,0l0,0l0,0l0,0l1.2,0.3v0.1l-4-0.3l0,0c-2.2-0.1-3.9,1.5-4,3.5c-0.1,2.2,1.3,3.9,3.5,4.2l0,0l0,0l0,0l0,0
		l1.2,0.1v0.1l-4,0.1l0,0c-2.2,0.1-3.8,1.9-3.6,3.9c0,2.2,1.7,3.8,3.9,3.8l0,0l0,0l0,0l0,0h1.2v0.1l-4,0.5l0,0
		c-2,0.3-3.5,2.2-3.2,4.3c0.3,2.2,2.2,3.6,4.3,3.4l0,0l0,0l0,0l0,0l1.2-0.1v0.1l-3.9,0.9l0,0c-1.6,0.4-2.8,2.4-2.3,4.4
		c0.5,2,2.6,3.4,4.6,2.8l0,0l0,0l0,0l0,0l1.1-0.3l-0.1,1.1l5.8,1.3c24.4,5.7,49.5,8.5,74.7,8.5c42.5,0,63.7-6.9,73.2-11.6
		c0.3,0,0.5-0.1,0.8-0.1c0.7-0.1,1.2-0.5,1.6-0.9c0.9,0.4,2,0.3,3.1-0.1l0,0l0,0l4.8-2.6l0,0C379.6,108.7,380.4,106.5,379.3,104.6z"
		/>
	<path fill="none" stroke="#E6E6E6" stroke-width="3" stroke-linecap="round" stroke-linejoin="round" stroke-miterlimit="10" d="
		M881.9,33.4c-2-0.8-5.1-1.3-8.5-1.3c-3.4,0-6.3,0.5-8.5,1.3c-2,0.8-5.1,1.2-8.3,1.2c-3.4,0-6.3-0.5-8.3-1.2c-2-0.8-5.1-1.3-8.5-1.3
		c-3.4,0-6.3,0.5-8.5,1.3c-2,0.8-5.1,1.2-8.3,1.2c-3.4,0-6.3-0.5-8.3-1.2l0,0L839.2,58c1.6,1.7,2.7,4.2,2.7,6.9
		c0,4.8-3.4,8.9-7.9,10c-18.8,2.2-36.5,8.3-52,17.8c-0.5,0.3-1.1,0.7-1.6,0.9l0,0l0,0c-10.6,6.9-17.8,18.8-17.8,32.6
		c0,21.5,18.2,38.6,39.6,38.6h46.2h46.2c21.5,0,39.6-17.1,39.6-38.6c0-13.7-7-25.7-17.8-32.6l0,0l0,0c-0.5-0.4-1.1-0.7-1.6-0.9
		c-15.5-9.4-33.1-15.6-52-17.8c-4.6-1.1-7.9-5.1-7.9-10c0-2.7,1.1-5,2.7-6.9L881.9,33.4L881.9,33.4z"/>
	<path fill="none" stroke="#E6E6E6" stroke-width="3" stroke-linecap="round" stroke-linejoin="round" stroke-miterlimit="10" d="
		M848.1,69l-21.8-4.2c-1.1-0.5-2.2-0.7-3.4-0.7l0,0l0,0c-2.3,0.1-4.4,1.3-5.7,3.5c-2,3.4-0.9,7.8,2.4,9.8c2.3,1.3,4.8,1.3,7,0.1l0,0
		L848.1,69z"/>
	<path fill="none" stroke="#E6E6E6" stroke-width="3" stroke-linecap="round" stroke-linejoin="round" stroke-miterlimit="10" d="
		M848.1,69l21.8-4.2c1.1-0.5,2.2-0.7,3.4-0.7l0,0l0,0c2.3,0.1,4.4,1.3,5.7,3.5c2,3.4,0.9,7.8-2.4,9.8c-2.3,1.3-4.8,1.3-7,0.1l0,0
		L848.1,69z"/>
	<path fill="none" stroke="#E6E6E6" stroke-width="3" stroke-linecap="round" stroke-linejoin="round" stroke-miterlimit="10" d="
		M835.6,126c-12.2-19.2-6.6-44.7,12.7-56.9"/>
	<path fill="none" stroke="#E6E6E6" stroke-width="3" stroke-linecap="round" stroke-linejoin="round" stroke-miterlimit="10" d="
		M867.2,103.5c-0.1-13.5-6.9-26.6-19.1-34.3"/>
	<path fill="none" stroke="#E6E6E6" stroke-width="3" stroke-linecap="round" stroke-linejoin="round" stroke-miterlimit="10" d="
		M652.2,189.8h-21.1c-2,0-3.6-1.6-3.6-3.6v-4c0-2,1.6-3.6,3.6-3.6h21.1c2,0,3.6,1.6,3.6,3.6v4C655.9,188.2,654.3,189.8,652.2,189.8z
		"/>
	
		<circle fill="none" stroke="#E6E6E6" stroke-width="3" stroke-linecap="round" stroke-linejoin="round" stroke-miterlimit="10" cx="669.1" cy="51.8" r="13.2"/>
	
		<circle fill="none" stroke="#E6E6E6" stroke-width="3" stroke-linecap="round" stroke-linejoin="round" stroke-miterlimit="10" cx="707.8" cy="90.6" r="13.2"/>
	
		<circle fill="none" stroke="#E6E6E6" stroke-width="3" stroke-linecap="round" stroke-linejoin="round" stroke-miterlimit="10" cx="707.8" cy="145.4" r="13.2"/>
	
		<circle fill="none" stroke="#E6E6E6" stroke-width="3" stroke-linecap="round" stroke-linejoin="round" stroke-miterlimit="10" cx="669.1" cy="184.1" r="13.2"/>
	
		<circle fill="none" stroke="#E6E6E6" stroke-width="3" stroke-linecap="round" stroke-linejoin="round" stroke-miterlimit="10" cx="614.3" cy="184.1" r="13.2"/>
	
		<circle fill="none" stroke="#E6E6E6" stroke-width="3" stroke-linecap="round" stroke-linejoin="round" stroke-miterlimit="10" cx="575.5" cy="145.4" r="13.2"/>
	
		<circle fill="none" stroke="#E6E6E6" stroke-width="3" stroke-linecap="round" stroke-linejoin="round" stroke-miterlimit="10" cx="575.5" cy="90.6" r="13.2"/>
	
		<circle fill="none" stroke="#E6E6E6" stroke-width="3" stroke-linecap="round" stroke-linejoin="round" stroke-miterlimit="10" cx="614.3" cy="51.8" r="13.2"/>
	
		<circle fill="none" stroke="#E6E6E6" stroke-width="3" stroke-linecap="round" stroke-linejoin="round" stroke-miterlimit="10" cx="641.6" cy="46.7" r="14.5"/>
	
		<circle fill="none" stroke="#E6E6E6" stroke-width="3" stroke-linecap="round" stroke-linejoin="round" stroke-miterlimit="10" cx="692.1" cy="67.6" r="14.5"/>
	
		<circle fill="none" stroke="#E6E6E6" stroke-width="3" stroke-linecap="round" stroke-linejoin="round" stroke-miterlimit="10" cx="712.9" cy="117.9" r="14.5"/>
	
		<circle fill="none" stroke="#E6E6E6" stroke-width="3" stroke-linecap="round" stroke-linejoin="round" stroke-miterlimit="10" cx="692.1" cy="168.4" r="14.5"/>
	
		<circle fill="none" stroke="#E6E6E6" stroke-width="3" stroke-linecap="round" stroke-linejoin="round" stroke-miterlimit="10" cx="591.4" cy="168.4" r="14.5"/>
	
		<circle fill="none" stroke="#E6E6E6" stroke-width="3" stroke-linecap="round" stroke-linejoin="round" stroke-miterlimit="10" cx="570.4" cy="118" r="14.5"/>
	
		<circle fill="none" stroke="#E6E6E6" stroke-width="3" stroke-linecap="round" stroke-linejoin="round" stroke-miterlimit="10" cx="591.3" cy="67.6" r="14.5"/>
	<path fill="none" stroke="#E6E6E6" stroke-width="3" stroke-linecap="round" stroke-linejoin="round" stroke-miterlimit="10" d="
		M641.7,178.5v3.5c-1.2,0-2.2,0.9-2.2,2.2c0,1.2,0.9,2.2,2.2,2.2v3.5"/>
	<path fill="none" stroke="#E6E6E6" stroke-width="3" stroke-linecap="round" stroke-linejoin="round" stroke-miterlimit="10" d="
		M318.9,185.5c8.5,1.6,14.9,4.2,18.2,7l0,0l41.5,41.5l-28.8,28.8L337,250.1v91.8h-88.7v-91.8l-12.7,12.7l-28.8-28.8l41.3-41.5l0,0
		c3.2-2.8,9.7-5.4,18.3-7l26.1,20.3L318.9,185.5z"/>
	
		<rect x="248.4" y="221.4" fill="none" stroke="#E6E6E6" stroke-width="3" stroke-linecap="round" stroke-linejoin="round" stroke-miterlimit="10" width="88.6" height="38.1"/>
	
		<polyline fill="none" stroke="#E6E6E6" stroke-width="3" stroke-linecap="round" stroke-linejoin="round" stroke-miterlimit="10" points="
		323.2,186.4 292.6,210.2 262.1,186.4 	"/>
	
		<circle fill="none" stroke="#E6E6E6" stroke-width="3" stroke-linecap="round" stroke-linejoin="round" stroke-miterlimit="10" cx="315.4" cy="240.5" r="9.8"/>
	<path fill="none" stroke="#E6E6E6" stroke-width="3" stroke-linecap="round" stroke-linejoin="round" stroke-miterlimit="10" d="
		M266.4,185.6c7.5,4.7,16.6,7.5,26.2,7.5c9.7,0,18.6-2.8,26.2-7.5"/>
	
		<circle fill="none" stroke="#E6E6E6" stroke-width="3" stroke-linecap="round" stroke-linejoin="round" stroke-miterlimit="10" cx="468.4" cy="363.8" r="65.3"/>
	<path fill="none" stroke="#E6E6E6" stroke-width="3" stroke-linecap="round" stroke-linejoin="round" stroke-miterlimit="10" d="
		M423,349.7c4.3-14,14.9-25.3,28.7-30.4"/>
	
		<polyline fill="none" stroke="#E6E6E6" stroke-width="3" stroke-linecap="round" stroke-linejoin="round" stroke-miterlimit="10" points="
		482.3,299.9 482.3,284.5 454.5,284.5 454.5,299.9 	"/>
	
		<line fill="none" stroke="#E6E6E6" stroke-width="3" stroke-linecap="round" stroke-linejoin="round" stroke-miterlimit="10" x1="468.4" y1="284.5" x2="468.4" y2="276.4"/>
	<path fill="none" stroke="#E6E6E6" stroke-width="3" stroke-linecap="round" stroke-linejoin="round" stroke-miterlimit="10" d="
		M478,266.9c0-5.2-4.3-9.6-9.6-9.6c-5.2,0-9.6,4.3-9.6,9.6c0,5.2,4.3,9.6,9.6,9.6"/>
	<path fill="none" stroke="#E6E6E6" stroke-width="3" stroke-linecap="round" stroke-linejoin="round" stroke-miterlimit="10" d="
		M666.9,580.7L666.9,580.7L666.9,580.7c-0.3-0.7-0.4-1.2-0.7-1.9l-25-73.2l0,0c-4-12.1-15.5-20.9-29.1-20.9
		c-13.6,0-24.9,8.7-29.1,20.9l0,0l-25,73.2c-2.3,6.2-3.5,12.9-3.5,19.9c0,31.8,25.8,57.6,57.6,57.6c31.8,0,57.6-25.8,57.6-57.6
		C669.9,592.4,668.8,586.4,666.9,580.7z"/>
	
		<circle fill="none" stroke="#E6E6E6" stroke-width="3" stroke-linecap="round" stroke-linejoin="round" stroke-miterlimit="10" cx="612.3" cy="598.8" r="30.7"/>
	<path fill="none" stroke="#E6E6E6" stroke-width="3" stroke-linecap="round" stroke-linejoin="round" stroke-miterlimit="10" d="
		M858.2,402.9v-0.1c0-5-2.6-9.7-7-12.2c-4.6-2.6-7.5-7.5-7.1-13.2c0.4-7,6.2-12.8,13.2-13.2c8.2-0.5,15.1,6.1,15.1,14.1"/>
	<path fill="none" stroke="#E6E6E6" stroke-width="3" stroke-linecap="round" stroke-linejoin="round" stroke-miterlimit="10" d="
		M937.4,456.8H778.8c-6.9,0-9-9.3-3-12.2l82.2-40.9l82.2,40.9C946.5,447.5,944.3,456.8,937.4,456.8z"/>
	
		<line fill="none" stroke="#E6E6E6" stroke-width="3" stroke-linecap="round" stroke-linejoin="round" stroke-miterlimit="10" x1="855.9" y1="404" x2="860.5" y2="404"/>
	
		<line fill="none" stroke="#E6E6E6" stroke-width="3" stroke-linecap="round" stroke-linejoin="round" stroke-miterlimit="10" x1="856.4" y1="402" x2="859.8" y2="402"/>
	
		<line fill="none" stroke="#E6E6E6" stroke-width="3" stroke-linecap="round" stroke-linejoin="round" stroke-miterlimit="10" x1="857.2" y1="400.1" x2="859.1" y2="400.1"/>
	
		<line fill="none" stroke="#E6E6E6" stroke-width="3" stroke-linecap="round" stroke-linejoin="round" stroke-miterlimit="10" x1="798.1" y1="432.4" x2="918.2" y2="432.4"/>
	<path fill="none" stroke="#E6E6E6" stroke-width="3" stroke-linecap="round" stroke-linejoin="round" stroke-miterlimit="10" d="
		M886.3,330.5h-71.1c-12,0-21.8-9.7-21.8-21.8v-61.1c0-2.7,2.3-5,5-5h104.7c2.7,0,5,2.3,5,5v61.1
		C908.1,320.9,898.4,330.5,886.3,330.5z"/>
	<path fill="none" stroke="#E6E6E6" stroke-width="3" stroke-linecap="round" stroke-linejoin="round" stroke-miterlimit="10" d="
		M895.6,328.5v10.9c0,2.6-2.2,4.7-4.7,4.7h-80.1c-2.6,0-4.7-2.2-4.7-4.7v-10.9"/>
	<g>
		<path fill="none" stroke="#E6E6E6" stroke-width="3" stroke-linecap="round" stroke-linejoin="round" stroke-miterlimit="10" d="
			M836,198.4c-0.8,2.2-1.3,5.4-1.3,8.9s0.5,6.7,1.3,8.9c0.8,2.2,1.3,5.4,1.3,8.9s-0.5,6.7-1.3,8.9v0.1"/>
	</g>
	<g>
		<path fill="none" stroke="#E6E6E6" stroke-width="3" stroke-linecap="round" stroke-linejoin="round" stroke-miterlimit="10" d="
			M851.3,178.5c-1.3,3.4-2.2,8.3-2.2,13.9s0.8,10.5,2.2,13.9c1.3,3.4,2.2,8.3,2.2,13.9s-0.8,10.5-2.2,13.9v0.1"/>
	</g>
	<g>
		<path fill="none" stroke="#E6E6E6" stroke-width="3" stroke-linecap="round" stroke-linejoin="round" stroke-miterlimit="10" d="
			M866.5,198.4c-0.8,2.2-1.3,5.4-1.3,8.9s0.5,6.7,1.3,8.9c0.8,2.2,1.3,5.4,1.3,8.9s-0.5,6.7-1.3,8.9v0.1"/>
	</g>
	<path fill="none" stroke="#E6E6E6" stroke-width="3" stroke-linecap="round" stroke-linejoin="round" stroke-miterlimit="10" d="
		M908.1,307.1h14.7c9.6,0,17.5-7.8,17.5-17.5v-5.9c0-9.6-7.8-17.5-17.5-17.5h-14.7v-8.9h14.7c14.5,0,26.4,11.8,26.4,26.4v5.9
		c0,14.5-11.8,26.4-26.4,26.4h-15.9"/>
	<path fill="none" stroke="#E6E6E6" stroke-width="3" stroke-linecap="round" stroke-linejoin="round" stroke-miterlimit="10" d="
		M368.7,454.6c-1.9-1.1-3.6-2.2-5.5-3.2c-1.7-0.9-4-0.8-5.7,0.4c-1.7,1.1-3.9,1.3-5.9,0.4c-2-0.9-3.2-3-3.5-5
		c-0.1-2-1.6-3.8-3.5-4.4c-3.5-1.3-7.1-2.6-10.8-3.6c-2-0.5-4,0.1-5.5,1.6c-1.3,1.5-3.5,2.2-5.7,1.7c-2.2-0.5-3.9-2.2-4.4-4.2
		c-0.5-1.9-2.3-3.4-4.3-3.6c-3.8-0.5-7.4-0.9-11.3-1.2c-2-0.1-3.9,0.9-5,2.7c-1.1,1.7-3,3-5.1,3c-2.2,0-4-1.2-5.1-3
		c-1.1-1.7-3-2.8-5-2.7c-3.8,0.3-7.5,0.7-11.3,1.2c-2,0.3-3.8,1.6-4.3,3.6c-0.5,2-2.3,3.6-4.4,4.2c-2.2,0.5-4.3-0.3-5.7-1.7
		c-1.5-1.5-3.5-2.2-5.5-1.6c-3.6,1.1-7.3,2.3-10.8,3.6c-1.9,0.7-3.4,2.4-3.5,4.4c-0.1,2.2-1.3,4-3.5,5c-2,0.9-4.2,0.7-5.9-0.5
		c-1.7-1.2-3.9-1.3-5.7-0.4c-2.2,1.2-4.2,2.4-6.2,3.6l0,0c-5.4,3.2-8.9,9-9,15.6c-0.1,10.4,8.6,18.8,19,18.8h133.6
		c10.2,0,18.8-8.1,19-18.3C378.6,464.2,374.6,457.9,368.7,454.6z"/>
	<path fill="none" stroke="#E6E6E6" stroke-width="3" stroke-linecap="round" stroke-linejoin="round" stroke-miterlimit="10" d="
		M290.3,466.1c0.8,0.5,1.9,0.9,3,0.9c1.3,0,2.4-0.4,3.4-1.2"/>
	<path fill="none" stroke="#E6E6E6" stroke-width="3" stroke-linecap="round" stroke-linejoin="round" stroke-miterlimit="10" d="
		M258.6,466.1c0.8,0.5,1.9,0.9,3,0.9c1.3,0,2.4-0.4,3.4-1.2"/>
	
		<line fill="none" stroke="#E6E6E6" stroke-width="3" stroke-linecap="round" stroke-linejoin="round" stroke-miterlimit="10" x1="255.2" y1="451.3" x2="255.2" y2="460.4"/>
	
		<line fill="none" stroke="#E6E6E6" stroke-width="3" stroke-linecap="round" stroke-linejoin="round" stroke-miterlimit="10" x1="255.2" y1="439.8" x2="255.2" y2="446.6"/>
	
		<line fill="none" stroke="#E6E6E6" stroke-width="3" stroke-linecap="round" stroke-linejoin="round" stroke-miterlimit="10" x1="266.8" y1="438.5" x2="266.8" y2="449"/>
	<path fill="none" stroke="#E6E6E6" stroke-width="3" stroke-linecap="round" stroke-linejoin="round" stroke-miterlimit="10" d="
		M230.1,466.1c0.8,0.5,1.9,0.9,3,0.9c1.3,0,2.4-0.4,3.4-1.2"/>
	
		<line fill="none" stroke="#E6E6E6" stroke-width="3" stroke-linecap="round" stroke-linejoin="round" stroke-miterlimit="10" x1="266.8" y1="454.4" x2="266.8" y2="460.4"/>
	
		<line fill="none" stroke="#E6E6E6" stroke-width="3" stroke-linecap="round" stroke-linejoin="round" stroke-miterlimit="10" x1="286.8" y1="450.2" x2="286.8" y2="460.4"/>
	
		<line fill="none" stroke="#E6E6E6" stroke-width="3" stroke-linecap="round" stroke-linejoin="round" stroke-miterlimit="10" x1="286.8" y1="437.5" x2="286.8" y2="444.9"/>
	
		<line fill="none" stroke="#E6E6E6" stroke-width="3" stroke-linecap="round" stroke-linejoin="round" stroke-miterlimit="10" x1="298.4" y1="435.9" x2="298.4" y2="447.8"/>
	
		<line fill="none" stroke="#E6E6E6" stroke-width="3" stroke-linecap="round" stroke-linejoin="round" stroke-miterlimit="10" x1="298.4" y1="453.7" x2="298.4" y2="460.4"/>
	
		<line fill="none" stroke="#E6E6E6" stroke-width="3" stroke-linecap="round" stroke-linejoin="round" stroke-miterlimit="10" x1="226.3" y1="456.2" x2="226.3" y2="460.4"/>
	
		<line fill="none" stroke="#E6E6E6" stroke-width="3" stroke-linecap="round" stroke-linejoin="round" stroke-miterlimit="10" x1="226.3" y1="451.1" x2="226.3" y2="454.1"/>
	
		<line fill="none" stroke="#E6E6E6" stroke-width="3" stroke-linecap="round" stroke-linejoin="round" stroke-miterlimit="10" x1="237.9" y1="444.7" x2="237.9" y2="452.2"/>
	
		<line fill="none" stroke="#E6E6E6" stroke-width="3" stroke-linecap="round" stroke-linejoin="round" stroke-miterlimit="10" x1="237.9" y1="456.1" x2="237.9" y2="460.4"/>
	<path fill="none" stroke="#E6E6E6" stroke-width="3" stroke-linecap="round" stroke-linejoin="round" stroke-miterlimit="10" d="
		M326.7,466.1c-0.8,0.5-1.9,0.9-3,0.9c-1.3,0-2.4-0.4-3.4-1.2"/>
	
		<line fill="none" stroke="#E6E6E6" stroke-width="3" stroke-linecap="round" stroke-linejoin="round" stroke-miterlimit="10" x1="330" y1="451.3" x2="330" y2="460.4"/>
	
		<line fill="none" stroke="#E6E6E6" stroke-width="3" stroke-linecap="round" stroke-linejoin="round" stroke-miterlimit="10" x1="330" y1="439.8" x2="330" y2="446.6"/>
	
		<line fill="none" stroke="#E6E6E6" stroke-width="3" stroke-linecap="round" stroke-linejoin="round" stroke-miterlimit="10" x1="318.5" y1="438.5" x2="318.5" y2="449"/>
	<path fill="none" stroke="#E6E6E6" stroke-width="3" stroke-linecap="round" stroke-linejoin="round" stroke-miterlimit="10" d="
		M355.2,466.1c-0.8,0.5-1.9,0.9-3,0.9c-1.3,0-2.4-0.4-3.4-1.2"/>
	
		<line fill="none" stroke="#E6E6E6" stroke-width="3" stroke-linecap="round" stroke-linejoin="round" stroke-miterlimit="10" x1="318.5" y1="454.4" x2="318.5" y2="460.4"/>
	
		<line fill="none" stroke="#E6E6E6" stroke-width="3" stroke-linecap="round" stroke-linejoin="round" stroke-miterlimit="10" x1="359" y1="456.2" x2="359" y2="460.4"/>
	
		<line fill="none" stroke="#E6E6E6" stroke-width="3" stroke-linecap="round" stroke-linejoin="round" stroke-miterlimit="10" x1="359" y1="451.1" x2="359" y2="454.1"/>
	
		<line fill="none" stroke="#E6E6E6" stroke-width="3" stroke-linecap="round" stroke-linejoin="round" stroke-miterlimit="10" x1="347.4" y1="444.7" x2="347.4" y2="452.2"/>
	
		<line fill="none" stroke="#E6E6E6" stroke-width="3" stroke-linecap="round" stroke-linejoin="round" stroke-miterlimit="10" x1="347.4" y1="456.1" x2="347.4" y2="460.4"/>
	<g>
		<path fill="none" stroke="#E6E6E6" stroke-width="3" stroke-linecap="round" stroke-linejoin="round" stroke-miterlimit="10" d="
			M275.9,400.9c-0.5,1.5-0.9,3.8-0.9,6.3c0,2.6,0.4,4.8,0.9,6.3c0.5,1.5,0.9,3.8,0.9,6.3c0,2.6-0.4,4.8-0.9,6.3l0,0"/>
	</g>
	<g>
		<path fill="none" stroke="#E6E6E6" stroke-width="3" stroke-linecap="round" stroke-linejoin="round" stroke-miterlimit="10" d="
			M310.8,400.9c-0.5,1.5-0.9,3.8-0.9,6.3c0,2.6,0.4,4.8,0.9,6.3c0.5,1.5,0.9,3.8,0.9,6.3c0,2.6-0.4,4.8-0.9,6.3l0,0"/>
	</g>
	<g>
		<path fill="none" stroke="#E6E6E6" stroke-width="3" stroke-linecap="round" stroke-linejoin="round" stroke-miterlimit="10" d="
			M292.6,385.2c-0.9,2.4-1.5,5.9-1.5,9.8c0,3.9,0.5,7.5,1.5,9.8c0.9,2.4,1.5,5.9,1.5,9.8c0,3.9-0.5,7.4-1.5,9.8v0.1"/>
	</g>
	<path fill="none" stroke="#E6E6E6" stroke-width="3" stroke-linecap="round" stroke-linejoin="round" stroke-miterlimit="10" d="
		M458.7,150.9v27.2l0,0c0,4.3-1.2,8.3-3.4,11.8c-1.3,1.5-2.3,3.5-2.3,5.7c0,4.6,3.8,8.3,8.3,8.3c2.7,0,5.1-1.3,6.6-3.4
		c1.5,2,3.9,3.4,6.6,3.4c4.6,0,8.3-3.8,8.3-8.3c0-2.2-0.8-4.2-2.3-5.7c-2.2-3.5-3.4-7.5-3.4-11.8V151"/>
	<path fill="none" stroke="#E6E6E6" stroke-width="3" stroke-linecap="round" stroke-linejoin="round" stroke-miterlimit="10" d="
		M452,138.8c-1.1,1.1-1.7,2.6-1.7,4.3c0,3.4,2.7,6.1,6.1,6.1c0.4,0,0.7,0,1.1-0.1c1.1,1.6,3,2.7,5,2.7c0.8,0,1.5-0.1,2.2-0.4
		c1.1,0.9,2.4,1.5,3.9,1.5c1.5,0,2.8-0.5,3.9-1.5c0.7,0.3,1.3,0.4,2.2,0.4c2.2,0,3.9-1.1,5-2.7c0.4,0,0.7,0.1,1.1,0.1
		c3.4,0,6.1-2.7,6.1-6.1c0-1.6-0.7-3.1-1.6-4.2l0.1-0.1c2.8-3.6,4.6-8.1,4.6-13.1c0-1.5-0.1-3-0.5-4.3l0,0c-1.6-8.3,1.2-16.4,7-21.9
		c7.3-7.1,11.8-17.1,11.8-28.1c0-21.7-17.6-39.3-39.3-39.3c-0.1,0-0.3,0-0.4,0c-0.1,0-0.3,0-0.4,0c-21.7,0-39.3,17.6-39.3,39.3
		c0,11,4.6,21,11.8,28.1c5.8,5.5,8.6,13.6,7,21.9l0,0c-0.3,1.3-0.5,2.8-0.5,4.3c0,5,1.7,9.4,4.6,13.1H452z"/>
	<path fill="none" stroke="#E6E6E6" stroke-width="3" stroke-linecap="round" stroke-linejoin="round" stroke-miterlimit="10" d="
		M732.2,427.2v11.7c0,1.5-1.2,2.6-2.6,2.6h-50.5l-4-2.4l-4,2.3h-54H563c-0.8,0-1.3-0.7-1.3-1.3v-3.9"/>
	<path fill="none" stroke="#E6E6E6" stroke-width="3" stroke-linecap="round" stroke-linejoin="round" stroke-miterlimit="10" d="
		M691.7,436.2"/>
	<path fill="none" stroke="#E6E6E6" stroke-width="3" stroke-linecap="round" stroke-linejoin="round" stroke-miterlimit="10" d="
		M658.2,387.2v-0.3c0.5-2.6-2.3-4.4-4.4-2.8l-16.4,12.1l-68.5,22.5c-4.8,1.6-8.2,6.2-8.2,11.3v6.2l97.7-1.7h65.9
		c4.4,0,7.9-3.6,7.9-7.9V397c0-2-1.6-3.6-3.6-3.6h-5.1l-51.1,8.6C663.7,403.5,656.3,395.8,658.2,387.2z"/>
	
		<polyline fill="none" stroke="#E6E6E6" stroke-width="3" stroke-linecap="round" stroke-linejoin="round" stroke-miterlimit="10" points="
		657.9,388.3 654.4,405.1 705.7,396.4 	"/>
	<path fill="none" stroke="#E6E6E6" stroke-width="3" stroke-linecap="round" stroke-linejoin="round" stroke-miterlimit="10" d="
		M772,849.5l18.7-197.7h-49.5l0,0h-17.1l17.1,7.1l0,0l-17.1,7.1l17.1,7.1l0,0l-17.1,7.1l17.1,7.1l0,0l-17.1,7.1l17.1,7.1l0,0
		l-17.1,7.1l17.1,7.1l0,0l-17.1,7.1l17.1,7.1l0,0l-17.1,7.1l17.1,7.1l0,0l-17.1,7.1l17.1,7.1l0,0l-17.1,7.1l17.1,7.1l0,0l-17.1,7.1
		l17.1,7.1l0,0l-17.1,7.1l17.1,7.1l0,0l-17.1,7.1l17.1,7.1l0,0l-17.1,7.1l17.1,7.1l0,0l-17.1,7.1l17.1,7.1l0,0l-17.1,7.1h17.1v0.1
		h28C770.5,852.2,771.9,851,772,849.5z"/>
	<path fill="none" stroke="#E6E6E6" stroke-width="3" stroke-linecap="round" stroke-linejoin="round" stroke-miterlimit="10" d="
		M777.1,602l-42.8-5c-9.8-1.2-18.4,6.6-18.4,16.4v35c0,1.6,1.3,3,3,3h70c1.6,0,3-1.3,3-3v-30C791.8,610.1,785.5,602.9,777.1,602z"/>
	<path fill="none" stroke="#E6E6E6" stroke-width="3" stroke-linecap="round" stroke-linejoin="round" stroke-miterlimit="10" d="
		M774.2,612.8l-39-4.6c-4.6-0.5-8.6,3.1-8.6,7.7v19H781v-14.4C781,616.4,778.1,613.2,774.2,612.8z"/>
	<path fill="none" stroke="#E6E6E6" stroke-width="3" stroke-linecap="round" stroke-linejoin="round" stroke-miterlimit="10" d="
		M1064.3,881.1L1064.3,881.1l-0.7-0.4c-0.3-0.1-0.5-0.3-0.7-0.3l-38-16.6h-6.6h-6.6l-38,16.6c-0.3,0.1-0.5,0.3-0.7,0.3l-0.8,0.3l0,0
		c-10.9,5.1-18.6,16.3-18.6,29.2h64.6h64.6C1082.9,897.4,1075.4,886.4,1064.3,881.1z"/>
	<path fill="none" stroke="#E6E6E6" stroke-width="3" stroke-linecap="round" stroke-linejoin="round" stroke-miterlimit="10" d="
		M1021.6,599.6h-6.6c-1.7,0-3.2,1.5-3.2,3.2v247.9h13.1V602.9C1024.8,601.1,1023.3,599.6,1021.6,599.6z"/>
	
		<polygon fill="none" stroke="#E6E6E6" stroke-width="3" stroke-linecap="round" stroke-linejoin="round" stroke-miterlimit="10" points="
		989.7,943 991.8,936.6 994,943 998.5,943 1000.7,936.6 1002.8,943 1007.4,943 1009.6,936.6 1011.7,943 1042.9,943 1045.1,936.9 
		1047.1,943 1051.8,943 1054,936.9 1056,943 1060.7,943 1062.7,936.9 1064.8,943 1069.6,943 1071.6,936.9 1073.6,943 1078.5,943 
		1080.5,937 1080.5,910.3 956.1,910.3 956.1,943 956.4,943 956.4,936.4 958.6,943 963,943 965.3,936.4 967.4,943 971.9,943 
		974.2,936.4 976.3,943 	"/>
	<path fill="none" stroke="#E6E6E6" stroke-width="3" stroke-linecap="round" stroke-linejoin="round" stroke-miterlimit="10" d="
		M982.9,936.6"/>
	
		<polygon fill="none" stroke="#E6E6E6" stroke-width="3" stroke-linecap="round" stroke-linejoin="round" stroke-miterlimit="10" points="
		1080.5,943 1080.5,943 1080.5,941.4 	"/>
	
		<line fill="none" stroke="#E6E6E6" stroke-width="3" stroke-linecap="round" stroke-linejoin="round" stroke-miterlimit="10" x1="974.2" y1="930.8" x2="974.2" y2="924.1"/>
	
		<line fill="none" stroke="#E6E6E6" stroke-width="3" stroke-linecap="round" stroke-linejoin="round" stroke-miterlimit="10" x1="999.7" y1="930.8" x2="999.7" y2="924.1"/>
	
		<line fill="none" stroke="#E6E6E6" stroke-width="3" stroke-linecap="round" stroke-linejoin="round" stroke-miterlimit="10" x1="1010.1" y1="930.8" x2="1010.1" y2="924.1"/>
	
		<line fill="none" stroke="#E6E6E6" stroke-width="3" stroke-linecap="round" stroke-linejoin="round" stroke-miterlimit="10" x1="1071.2" y1="931.9" x2="1071.2" y2="919.5"/>
	
		<line fill="none" stroke="#E6E6E6" stroke-width="3" stroke-linecap="round" stroke-linejoin="round" stroke-miterlimit="10" x1="1045.4" y1="936.9" x2="1045.4" y2="928.1"/>
	
		<polyline fill="none" stroke="#E6E6E6" stroke-width="3" stroke-linecap="round" stroke-linejoin="round" stroke-miterlimit="10" points="
		1026.8,863.9 1026.8,850.9 1009.7,850.9 1009.7,863.9 	"/>
	
		<polyline fill="none" stroke="#E6E6E6" stroke-width="3" stroke-linecap="round" stroke-linejoin="round" stroke-miterlimit="10" points="
		1082.9,910.3 1082.9,919.5 953.6,919.5 953.6,910.3 	"/>
	<path fill="none" stroke="#E6E6E6" stroke-width="3" stroke-linecap="round" stroke-linejoin="round" stroke-miterlimit="10" d="
		M932.9,610.8L932.9,610.8h-27.3v9.2h-27.6h-44.1L823,665.8h54.9h54.9h54.9C987.9,635.4,963.3,610.8,932.9,610.8z"/>
	<path fill="none" stroke="#E6E6E6" stroke-width="3" stroke-linecap="round" stroke-linejoin="round" stroke-miterlimit="10" d="
		M841.2,619.5v-11.4c0-8.3,6.9-15.2,15.2-15.2h34.1c8.3,0,15.2,6.9,15.2,15.2v11.4"/>
	<path fill="none" stroke="#E6E6E6" stroke-width="3" stroke-linecap="round" stroke-linejoin="round" stroke-miterlimit="10" d="
		M896.4,619.5v-11.4c0-3.4-2.7-6.1-6.1-6.1h-34.1c-3.4,0-6.1,2.7-6.1,6.1v11.4"/>
	
		<polygon fill="none" stroke="#E6E6E6" stroke-width="3" stroke-linecap="round" stroke-linejoin="round" stroke-miterlimit="10" points="
		991.3,676.8 819.5,676.8 822.9,665.7 987.9,665.7 	"/>
	
		<rect x="569.6" y="741.7" fill="none" stroke="#E6E6E6" stroke-width="3" stroke-linecap="round" stroke-linejoin="round" stroke-miterlimit="10" width="77.4" height="32.2"/>
	<path fill="none" stroke="#E6E6E6" stroke-width="3" stroke-linecap="round" stroke-linejoin="round" stroke-miterlimit="10" d="
		M608.2,859.9c-20.5,0-39.2-7.1-54-19c-4.3-3.5-6.7-8.7-6.7-14.3v-105c0-5.5,2.4-10.8,6.7-14.3c14.7-11.8,33.5-19,54-19
		c20.5,0,39.2,7.1,54,19c4.3,3.5,6.7,8.7,6.7,14.3v105c0,5.5-2.4,10.8-6.7,14.3C647.4,852.7,628.7,859.9,608.2,859.9z"/>
	<path fill="none" stroke="#E6E6E6" stroke-width="3" stroke-linecap="round" stroke-linejoin="round" stroke-miterlimit="10" d="
		M458.3,581.4h-19c-7.8,0-13.3-7.5-10.9-15.1l28-87.2c3.4-10.5,18.2-10.6,21.8-0.3l30.1,87.2c2.6,7.4-3,15.2-10.9,15.2h-18.6"/>
	<path fill="none" stroke="#E6E6E6" stroke-width="3" stroke-linecap="round" stroke-linejoin="round" stroke-miterlimit="10" d="
		M478.9,585.7h-8.7h-11.8v-10.4c0-5.7,4.6-10.4,10.4-10.4l0,0c5.7,0,10.4,4.6,10.4,10.4v10.4H478.9z"/>
	<path fill="none" stroke="#E6E6E6" stroke-width="3" stroke-linecap="round" stroke-linejoin="round" stroke-miterlimit="10" d="
		M478.9,585.7v46.8c0,5.7-4.6,10.4-10.4,10.4l0,0c-5.7,0-10.4-4.6-10.4-10.4v-46.8"/>
	<path fill="none" stroke="#E6E6E6" stroke-width="3" stroke-linecap="round" stroke-linejoin="round" stroke-miterlimit="10" d="
		M448.1,505.4v34.3c0,2.6,2,4.6,4.6,4.6s4.6-2,4.6-4.6v-30.8c0-2.6,2-4.6,4.6-4.6c2.6,0,4.6,2,4.6,4.6v4.2c0,2.6,2,4.6,4.6,4.6
		c2.6,0,4.6-2,4.6-4.6v-13.5c0-2.6,2-4.6,4.6-4.6s4.6,2,4.6,4.6"/>
	<path fill="none" stroke="#E6E6E6" stroke-width="3" stroke-linecap="round" stroke-linejoin="round" stroke-miterlimit="10" d="
		M327.4,943H377c3.2,0,6.3-1.3,8.5-3.6c8.6-9,13.7-21.5,12.8-35.1c-1.5-23-20.2-41.6-43.1-43.1c-26.9-1.7-49.3,19.6-49.3,46.2
		c0,12.5,5,23.8,13.1,32.2C321.2,941.7,324.1,943,327.4,943z"/>
	
		<polyline fill="none" stroke="#E6E6E6" stroke-width="3" stroke-linecap="round" stroke-linejoin="round" stroke-miterlimit="10" points="
		369.5,864.2 364.1,771.3 340.3,771.3 335,864.2 	"/>
	<g>
		<path fill="none" stroke="#E6E6E6" stroke-width="3" stroke-linecap="round" stroke-linejoin="round" stroke-miterlimit="10" d="
			M395.2,894.2c-5.2-2-12.9-3.2-21.5-3.2c-8.6,0-16.3,1.2-21.5,3.2s-12.9,3.2-21.5,3.2s-16.3-1.2-21.5-3.2h-0.1"/>
	</g>
	
		<polyline fill="none" stroke="#E6E6E6" stroke-width="3" stroke-linecap="round" stroke-linejoin="round" stroke-miterlimit="10" points="
		346.1,895.9 346.1,861.5 358.3,861.5 358.3,892.4 	"/>
	<path fill="none" stroke="#E6E6E6" stroke-width="3" stroke-linecap="round" stroke-linejoin="round" stroke-miterlimit="10" d="
		M742.3,943c11.4,0,21.3-7.1,25.2-17.1h-23.6l-6.3-10l6.3-10h23.7c-3.9-10.1-13.7-17.1-25.2-17.1c-10.6,0-19.8,6.1-24.2,14.9H455.3
		c-1.5,0-3.1-0.5-4.2-1.5c-3.5-2.8-7.9-4.4-12.9-4c-8.7,0.8-15.6,7.9-16.2,16.7c-0.5,10.2,7.5,18.7,17.6,18.7
		c4.3,0,8.3-1.6,11.4-4.2c1.1-0.9,2.6-1.3,3.9-1.3h263C722.5,936.9,731.8,943,742.3,943z M429.8,915.9c0-5.5,4.4-10,10-10
		s10,4.4,10,10c0,5.5-4.4,10-10,10S429.8,921.4,429.8,915.9z"/>
	
		<ellipse fill="none" stroke="#E6E6E6" stroke-width="3" stroke-linecap="round" stroke-linejoin="round" stroke-miterlimit="10" cx="237.5" cy="896.9" rx="30.7" ry="5.5"/>
	
		<line fill="none" stroke="#E6E6E6" stroke-width="3" stroke-linecap="round" stroke-linejoin="round" stroke-miterlimit="10" x1="237.5" y1="895.7" x2="237.5" y2="661"/>
	
		<polyline fill="none" stroke="#E6E6E6" stroke-width="3" stroke-linecap="round" stroke-linejoin="round" stroke-miterlimit="10" points="
		206.8,896.9 237.5,943 268.1,896.9 	"/>
	<path fill="none" stroke="#E6E6E6" stroke-width="3" stroke-linecap="round" stroke-linejoin="round" stroke-miterlimit="10" d="
		M476.7,791.8c8.6-14.7,13.6-31.6,13.6-49.8c0-24.9-9.3-47.6-24.5-64.9v97.2 M454.7,792.4c-2.8,3.5-6.1,6.9-9.4,9.8
		c-0.4,0-0.8,0-1.3,0c-12.1,0-21.9,9.8-21.9,21.9c0,12.1,9.8,21.9,21.9,21.9c12.1,0,21.9-9.8,21.9-21.9c0-4.8-1.6-9.3-4.2-12.9
		c1.5-1.5,2.8-3,4.2-4.4 M443.9,837.9c-7.7,0-13.7-6.2-13.7-13.7c0-7.7,6.2-13.7,13.7-13.7c7.5,0,13.7,6.2,13.7,13.7
		C457.6,831.7,451.6,837.9,443.9,837.9z"/>
	<path fill="none" stroke="#E6E6E6" stroke-width="3" stroke-linecap="round" stroke-linejoin="round" stroke-miterlimit="10" d="
		M490.2,799.7c-2.2,0-4.2,0.3-6.1,0.8c-7.8-7.4-14.1-16.3-18.4-26.1v-97.2c-15.2,17.4-24.5,40-24.5,64.9c0,18.3,5,35.5,13.9,50.2
		c3.1,5.2,6.7,10.2,10.8,14.7c1.2,1.5,2.6,2.8,3.9,4.2c-2.4,3.8-3.9,8.3-3.9,13.2c0,13.6,11,24.5,24.5,24.5
		c13.5,0,24.5-11,24.5-24.5C514.8,810.6,503.8,799.7,490.2,799.7z M490.3,840.9c-9.2,0-16.7-7.4-16.7-16.7c0-9.2,7.4-16.7,16.7-16.7
		c9.2,0,16.7,7.4,16.7,16.7C507,833.4,499.6,840.9,490.3,840.9z"/>
	
		<circle fill="none" stroke="#E6E6E6" stroke-width="3" stroke-linecap="round" stroke-linejoin="round" stroke-miterlimit="10" cx="465.8" cy="791.8" r="4.3"/>
	<path fill="none" stroke="#E6E6E6" stroke-width="3" stroke-linecap="round" stroke-linejoin="round" stroke-miterlimit="10" d="
		M729.4,335.5H557.6v-3c0-5.9,4.7-10.6,10.6-10.6h161v13.6H729.4z"/>
	
		<line fill="none" stroke="#E6E6E6" stroke-width="3" stroke-linecap="round" stroke-linejoin="round" stroke-miterlimit="10" x1="596.1" y1="294.3" x2="596.1" y2="313.9"/>
	<path fill="none" stroke="#E6E6E6" stroke-width="3" stroke-linecap="round" stroke-linejoin="round" stroke-miterlimit="10" d="
		M616.7,249.7v-11.7h-36.6c-10.9,0-19.6,8.7-19.6,19.6v17c0,10.9,8.7,19.6,19.6,19.6h22.7h13.9H673v27.6h56.3v-27.6v-44.7H616.7
		V249.7z"/>
	<path fill="none" stroke="#E6E6E6" stroke-width="3" stroke-linecap="round" stroke-linejoin="round" stroke-miterlimit="10" d="
		M356,597.7H241.4c-3.6,0-6.5-3-6.5-6.5v-29.6c0-3.6,3-6.5,6.5-6.5H356c3.6,0,6.5,3,6.5,6.5v29.6C362.5,594.7,359.7,597.7,356,597.7
		z"/>
	<path fill="none" stroke="#E6E6E6" stroke-width="3" stroke-linecap="round" stroke-linejoin="round" stroke-miterlimit="10" d="
		M362.5,576.4h4.4c5.5,0,10,4.4,10,10v13.9c0,5.5-4.4,10-10,10h-56.8c-6.3,0-11.3,5.1-11.3,11.3v18"/>
	
		<rect x="288.5" y="639.7" fill="none" stroke="#E6E6E6" stroke-width="3" stroke-linecap="round" stroke-linejoin="round" stroke-miterlimit="10" width="20.5" height="11.7"/>
	
		<rect x="288.5" y="651.4" fill="none" stroke="#E6E6E6" stroke-width="3" stroke-linecap="round" stroke-linejoin="round" stroke-miterlimit="10" width="20.5" height="75.4"/>
	<path fill="none" stroke="#E6E6E6" stroke-width="3" stroke-linecap="round" stroke-linejoin="round" stroke-miterlimit="10" d="
		M920.6,893.8c0,27.2-22.1,49.3-49.3,49.3s-49.3-22.1-49.3-49.3"/>
	
		<line fill="none" stroke="#E6E6E6" stroke-width="3" stroke-linecap="round" stroke-linejoin="round" stroke-miterlimit="10" x1="822.2" y1="893.8" x2="920.6" y2="893.8"/>
	<path fill="none" stroke="#E6E6E6" stroke-width="3" stroke-linecap="round" stroke-linejoin="round" stroke-miterlimit="10" d="
		M920.6,893.8V735.4c0-5.5,4.4-10,10-10c5.5,0,10,4.4,10,10"/>
	
		<rect x="976.1" y="32.2" fill="none" stroke="#E6E6E6" stroke-width="3" stroke-linecap="round" stroke-linejoin="round" stroke-miterlimit="10" width="16.7" height="35.7"/>
	<path fill="none" stroke="#E6E6E6" stroke-width="3" stroke-linecap="round" stroke-linejoin="round" stroke-miterlimit="10" d="
		M1034.1,35.8c17.6,0,34.2,4.2,48.9,11.6l0,0c-17.4-7.8-38-1.2-47.6,15.3c-0.5,0.9-1.5,1.5-2.6,1.5h-40V35.9h41.3V35.8z"/>
	
		<rect x="1009.8" y="64.2" fill="none" stroke="#E6E6E6" stroke-width="3" stroke-linecap="round" stroke-linejoin="round" stroke-miterlimit="10" width="19.1" height="79.4"/>
	
		<rect x="1009.8" y="143.5" fill="none" stroke="#E6E6E6" stroke-width="3" stroke-linecap="round" stroke-linejoin="round" stroke-miterlimit="10" width="19.1" height="60.3"/>
	
		<line fill="none" stroke="#E6E6E6" stroke-width="3" stroke-linecap="round" stroke-linejoin="round" stroke-miterlimit="10" x1="1017.1" y1="413.7" x2="1017.1" y2="318.7"/>
	
		<line fill="none" stroke="#E6E6E6" stroke-width="3" stroke-linecap="round" stroke-linejoin="round" stroke-miterlimit="10" x1="1027.7" y1="318.7" x2="1027.7" y2="413.7"/>
	<path fill="none" stroke="#E6E6E6" stroke-width="3" stroke-linecap="round" stroke-linejoin="round" stroke-miterlimit="10" d="
		M1024.2,467.4h-3.6c-3.1,0-5.5-2.4-5.5-5.5v-44.3c0-3.1,2.4-5.5,5.5-5.5h3.6c3.1,0,5.5,2.4,5.5,5.5v44.3
		C1029.8,464.9,1027.3,467.4,1024.2,467.4z"/>
	<path fill="none" stroke="#E6E6E6" stroke-width="3" stroke-linecap="round" stroke-linejoin="round" stroke-miterlimit="10" d="
		M1038.1,291.8v15.6c0,6.3-5.1,11.4-11.4,11.4h-8.5c-6.3,0-11.4-5.1-11.4-11.4v-15.6v-53.3l8.9,53.3c0,3.8,3,6.7,6.7,6.7
		c3.8,0,6.7-3,6.7-6.7l8.9-53.3v53.3H1038.1z"/>
	<path fill="none" stroke="#E6E6E6" stroke-width="3" stroke-linecap="round" stroke-linejoin="round" stroke-miterlimit="10" d="
		M763.1,506.8l-41-20.6l3.4,8.3c6.9,16.8,6.9,35.8,0,52.6l-3.4,8.3l41-20.6"/>
	
		<line fill="none" stroke="#E6E6E6" stroke-width="3" stroke-linecap="round" stroke-linejoin="round" stroke-miterlimit="10" x1="1064.9" y1="537.4" x2="984.9" y2="537.4"/>
	
		<circle fill="none" stroke="#E6E6E6" stroke-width="3" stroke-linecap="round" stroke-linejoin="round" stroke-miterlimit="10" cx="1005" cy="517.3" r="2.7"/>
	
		<line fill="none" stroke="#E6E6E6" stroke-width="3" stroke-linecap="round" stroke-linejoin="round" stroke-miterlimit="10" x1="1015.1" y1="531.7" x2="987" y2="564.2"/>
	
		<line fill="none" stroke="#E6E6E6" stroke-width="3" stroke-linecap="round" stroke-linejoin="round" stroke-miterlimit="10" x1="1024.9" y1="530.5" x2="1017.1" y2="559.9"/>
	<path fill="none" stroke="#E6E6E6" stroke-width="3" stroke-linecap="round" stroke-linejoin="round" stroke-miterlimit="10" d="
		M759.2,509.8l21.1-10.5c10.1-5.1,21.4-7.7,32.7-7.7h124.8c14.8,0,29.5,2.8,43.2,8.5l81.8,33.4c2.3,0.9,3.2,3.6,2,5.8l0,0
		c-2,3.5-5.5,5.7-9.6,5.8l-96.8,4.7c-2,0.1-4.2,0.1-6.2,0.1H908"/>
	<path fill="none" stroke="#E6E6E6" stroke-width="3" stroke-linecap="round" stroke-linejoin="round" stroke-miterlimit="10" d="
		M884.7,549.9h-71.5c-11.3,0-22.6-2.7-32.7-7.7l-21.1-10.5"/>
	<path fill="none" stroke="#E6E6E6" stroke-width="3" stroke-linecap="round" stroke-linejoin="round" stroke-miterlimit="10" d="
		M965.2,536.9c-4.8-3.6-7.9-9.6-7.9-16c0-6.3,3-12,7.5-15.7"/>
	
		<line fill="none" stroke="#E6E6E6" stroke-width="3" stroke-linecap="round" stroke-linejoin="round" stroke-miterlimit="10" x1="896" y1="537.9" x2="901.4" y2="537.9"/>
	<path fill="none" stroke="#E6E6E6" stroke-width="3" stroke-linecap="round" stroke-linejoin="round" stroke-miterlimit="10" d="
		M908.9,537.9l-1.3,24.5c-0.1,3-2.6,5.2-5.5,5.2h-16.4c-3.9,0-6.6-3.9-5.1-7.5l8.9-22.2"/>
	
		<line fill="none" stroke="#E6E6E6" stroke-width="3" stroke-linecap="round" stroke-linejoin="round" stroke-miterlimit="10" x1="736.1" y1="521" x2="748.2" y2="521"/>
	
		<line fill="none" stroke="#E6E6E6" stroke-width="3" stroke-linecap="round" stroke-linejoin="round" stroke-miterlimit="10" x1="734.3" y1="540.6" x2="751.3" y2="533.4"/>
	
		<line fill="none" stroke="#E6E6E6" stroke-width="3" stroke-linecap="round" stroke-linejoin="round" stroke-miterlimit="10" x1="738" y1="529.9" x2="753.3" y2="526.5"/>
	
		<line fill="none" stroke="#E6E6E6" stroke-width="3" stroke-linecap="round" stroke-linejoin="round" stroke-miterlimit="10" x1="734.3" y1="501.2" x2="751.3" y2="508.5"/>
	
		<line fill="none" stroke="#E6E6E6" stroke-width="3" stroke-linecap="round" stroke-linejoin="round" stroke-miterlimit="10" x1="738" y1="512.1" x2="753.3" y2="515.5"/>
	
		<line fill="none" stroke="#E6E6E6" stroke-width="3" stroke-linecap="round" stroke-linejoin="round" stroke-miterlimit="10" x1="901.2" y1="545.2" x2="899.5" y2="560.7"/>
	
		<line fill="none" stroke="#E6E6E6" stroke-width="3" stroke-linecap="round" stroke-linejoin="round" stroke-miterlimit="10" x1="894" y1="547.2" x2="890.6" y2="558.7"/>
	
		<line fill="none" stroke="#E6E6E6" stroke-width="3" stroke-linecap="round" stroke-linejoin="round" stroke-miterlimit="10" x1="776.1" y1="501.5" x2="776.1" y2="526.4"/>
	
		<line fill="none" stroke="#E6E6E6" stroke-width="3" stroke-linecap="round" stroke-linejoin="round" stroke-miterlimit="10" x1="817.4" y1="492.4" x2="817.4" y2="535.2"/>
	
		<line fill="none" stroke="#E6E6E6" stroke-width="3" stroke-linecap="round" stroke-linejoin="round" stroke-miterlimit="10" x1="944.7" y1="492.4" x2="944.7" y2="535.2"/>
	
		<line fill="none" stroke="#E6E6E6" stroke-width="3" stroke-linecap="round" stroke-linejoin="round" stroke-miterlimit="10" x1="800.4" y1="493.3" x2="800.4" y2="517.3"/>
	
		<line fill="none" stroke="#E6E6E6" stroke-width="3" stroke-linecap="round" stroke-linejoin="round" stroke-miterlimit="10" x1="858.7" y1="492.4" x2="858.7" y2="517.3"/>
	
		<line fill="none" stroke="#E6E6E6" stroke-width="3" stroke-linecap="round" stroke-linejoin="round" stroke-miterlimit="10" x1="900" y1="492.4" x2="900" y2="517.3"/>
	
		<line fill="none" stroke="#E6E6E6" stroke-width="3" stroke-linecap="round" stroke-linejoin="round" stroke-miterlimit="10" x1="787.9" y1="543.3" x2="787.9" y2="521"/>
	
		<line fill="none" stroke="#E6E6E6" stroke-width="3" stroke-linecap="round" stroke-linejoin="round" stroke-miterlimit="10" x1="834.3" y1="541" x2="834.3" y2="512.1"/>
	
		<line fill="none" stroke="#E6E6E6" stroke-width="3" stroke-linecap="round" stroke-linejoin="round" stroke-miterlimit="10" x1="850.1" y1="549.9" x2="850.1" y2="521"/>
	
		<line fill="none" stroke="#E6E6E6" stroke-width="3" stroke-linecap="round" stroke-linejoin="round" stroke-miterlimit="10" x1="867" y1="549.9" x2="867" y2="521"/>
	
		<line fill="none" stroke="#E6E6E6" stroke-width="3" stroke-linecap="round" stroke-linejoin="round" stroke-miterlimit="10" x1="880.1" y1="535.2" x2="880.1" y2="506.3"/>
	
		<line fill="none" stroke="#E6E6E6" stroke-width="3" stroke-linecap="round" stroke-linejoin="round" stroke-miterlimit="10" x1="917.1" y1="549.6" x2="917.1" y2="513.7"/>
	
		<line fill="none" stroke="#E6E6E6" stroke-width="3" stroke-linecap="round" stroke-linejoin="round" stroke-miterlimit="10" x1="929.8" y1="549.6" x2="929.8" y2="526.5"/>
</g>
<rect x="184.8" y="0" fill="none" width="910.3" height="960"/>
</svg>
