<?xml version="1.0" encoding="utf-8"?>
<!-- Generator: Adobe Illustrator 17.1.0, SVG Export Plug-In . SVG Version: 6.00 Build 0)  -->
<!DOCTYPE svg PUBLIC "-//W3C//DTD SVG 1.1//EN" "http://www.w3.org/Graphics/SVG/1.1/DTD/svg11.dtd">
<svg version="1.1" id="Capa_1" xmlns="http://www.w3.org/2000/svg" xmlns:xlink="http://www.w3.org/1999/xlink" x="0px" y="0px"
	 viewBox="0 0 342.9 232.2" enable-background="new 0 0 342.9 232.2" xml:space="preserve">
<g>
	<g>
		<path fill="#5D5D5D" d="M4,194.1c-1.1,0-2.1-0.4-2.8-1.1c-0.8-0.7-1.2-1.7-1.2-2.7c0-1.1,0.4-2,1.2-2.7c0.8-0.7,1.8-1.1,2.8-1.1
			c1,0,2,0.4,2.8,1.1c0.8,0.7,1.2,1.7,1.2,2.7c0,1.1-0.4,2-1.2,2.7C6.1,193.8,5.1,194.1,4,194.1z M1.2,199.5h5.6v32.7H1.2V199.5z"/>
		<path fill="#5D5D5D" d="M41.7,180.6c-0.9-1.5-2.2-2.5-3.7-3.2c-1.6-0.7-3.2-1-4.9-1c-1.2,0-2.5,0.2-3.7,0.4s-2.3,0.7-3.2,1.3
			c-1,0.6-1.7,1.4-2.3,2.4c-0.6,1-0.9,2.1-0.9,3.5c0,1,0.2,1.9,0.5,2.7c0.3,0.8,0.9,1.5,1.6,2.1c0.8,0.6,1.8,1.2,3.1,1.8
			c1.3,0.6,2.9,1.1,4.8,1.7c1.8,0.6,3.6,1.2,5.3,1.8c1.7,0.6,3.2,1.5,4.6,2.4c1.3,1,2.4,2.2,3.1,3.7c0.8,1.5,1.2,3.3,1.2,5.5
			c0,2.3-0.5,4.2-1.4,5.9c-0.9,1.7-2.2,3-3.7,4.1c-1.5,1.1-3.3,1.9-5.3,2.4c-2,0.5-4.1,0.8-6.2,0.8c-1.4,0-2.8-0.1-4.2-0.4
			c-1.4-0.2-2.7-0.6-4-1.1c-1.3-0.5-2.5-1.1-3.6-1.9c-1.1-0.8-2.1-1.8-2.9-2.9l4.8-3.8c1,1.7,2.5,2.9,4.3,3.8
			c1.8,0.9,3.8,1.3,5.8,1.3c1.2,0,2.4-0.2,3.6-0.5c1.2-0.3,2.3-0.8,3.3-1.5c1-0.7,1.8-1.5,2.4-2.5c0.6-1,0.9-2.1,0.9-3.4
			c0-1.4-0.2-2.6-0.7-3.4c-0.5-0.9-1.2-1.6-2.3-2.3c-1-0.6-2.3-1.2-3.9-1.7s-3.4-1.1-5.5-1.8c-1.7-0.5-3.3-1.1-4.7-1.8
			c-1.4-0.7-2.7-1.5-3.7-2.4c-1-1-1.9-2.1-2.5-3.5c-0.6-1.3-0.9-3-0.9-4.8c0-2.2,0.4-4.1,1.3-5.7c0.9-1.6,2.1-3,3.6-4.1
			c1.5-1.1,3.2-1.9,5.2-2.5c1.9-0.6,3.9-0.8,6-0.8c2.7,0,5.1,0.4,7.3,1.2c2.2,0.8,4.2,2.2,5.9,4.1L41.7,180.6z"/>
		<path fill="#5D5D5D" d="M83.5,212.5c-1.9,2.3-3.9,3.9-6.2,4.8c-2.2,0.9-4.8,1.4-7.8,1.4c-2.5,0-4.7-0.4-6.6-1.2
			c-2-0.8-3.6-2-5-3.4c-1.4-1.4-2.4-3.1-3.1-5c-0.7-1.9-1.1-4-1.1-6.2c0-2.3,0.4-4.4,1.2-6.4c0.8-1.9,1.9-3.6,3.3-5
			c1.4-1.4,3.1-2.5,5.1-3.2c2-0.8,4.1-1.2,6.4-1.2c2.2,0,4.2,0.4,6,1.1c1.8,0.7,3.4,1.7,4.7,3.1c1.3,1.3,2.3,3,3,4.9
			c0.7,1.9,1.1,4.2,1.1,6.6v1.6H59.3c0.1,1.3,0.4,2.5,1,3.7c0.6,1.2,1.3,2.2,2.2,3.1c0.9,0.9,1.9,1.6,3.1,2.1s2.5,0.8,3.9,0.8
			c2.3,0,4.2-0.4,5.8-1.2s3-1.9,4.2-3.4L83.5,212.5z M79,200.3c-0.1-2.6-1-4.6-2.6-6.2c-1.7-1.5-3.9-2.3-6.8-2.3
			c-2.9,0-5.2,0.8-7,2.3c-1.8,1.5-2.9,3.6-3.2,6.2H79z"/>
		<path fill="#5D5D5D" d="M111.8,169.5h5.2V218h-5.2V169.5z"/>
		<path fill="#5D5D5D" d="M155.3,212.5c-1.9,2.3-3.9,3.9-6.2,4.8c-2.2,0.9-4.8,1.4-7.8,1.4c-2.5,0-4.7-0.4-6.6-1.2
			c-2-0.8-3.6-2-5-3.4c-1.4-1.4-2.4-3.1-3.1-5c-0.7-1.9-1.1-4-1.1-6.2c0-2.3,0.4-4.4,1.2-6.4s1.9-3.6,3.3-5c1.4-1.4,3.1-2.5,5.1-3.2
			c2-0.8,4.1-1.2,6.4-1.2c2.2,0,4.2,0.4,6,1.1c1.8,0.7,3.4,1.7,4.7,3.1c1.3,1.3,2.3,3,3,4.9c0.7,1.9,1.1,4.2,1.1,6.6v1.6h-25.3
			c0.1,1.3,0.4,2.5,1,3.7c0.6,1.2,1.3,2.2,2.2,3.1c0.9,0.9,1.9,1.6,3.1,2.1c1.2,0.5,2.5,0.8,3.9,0.8c2.3,0,4.2-0.4,5.8-1.2
			c1.6-0.8,3-1.9,4.2-3.4L155.3,212.5z M150.9,200.3c-0.1-2.6-1-4.6-2.6-6.2c-1.7-1.5-3.9-2.3-6.8-2.3c-2.9,0-5.2,0.8-7,2.3
			c-1.8,1.5-2.9,3.6-3.2,6.2H150.9z"/>
		<path fill="#5D5D5D" d="M200.3,192.2h-9.2v15c0,1,0,1.9,0.1,2.7c0,0.8,0.2,1.6,0.5,2.2c0.3,0.6,0.8,1.1,1.4,1.5
			c0.6,0.4,1.5,0.5,2.7,0.5c0.8,0,1.5-0.1,2.3-0.3c0.8-0.2,1.6-0.4,2.3-0.8l0.2,4.6c-0.9,0.4-1.9,0.7-3,0.8
			c-1.1,0.2-2.1,0.3-3.1,0.3c-1.9,0-3.4-0.2-4.5-0.7c-1.1-0.5-2-1.1-2.6-2c-0.6-0.9-1-1.9-1.2-3.2c-0.2-1.3-0.3-2.7-0.3-4.2v-16.5
			H179V188h6.8v-8.5h5.2v8.5h9.2V192.2z"/>
		<path fill="#5D5D5D" d="M206.1,176.2c0-1,0.4-1.8,1.1-2.6c0.7-0.7,1.6-1.1,2.7-1.1c1.1,0,2,0.4,2.7,1.1c0.7,0.7,1.1,1.6,1.1,2.6
			c0,1.1-0.4,1.9-1.1,2.6c-0.7,0.7-1.6,1-2.7,1s-2-0.3-2.7-1S206.1,177.3,206.1,176.2z M207.3,188h5.2v30h-5.2V188z"/>
		<path fill="#5D5D5D" d="M250.8,212.5c-1.9,2.3-3.9,3.9-6.2,4.8c-2.2,0.9-4.8,1.4-7.8,1.4c-2.5,0-4.7-0.4-6.6-1.2
			c-2-0.8-3.6-2-5-3.4c-1.4-1.4-2.4-3.1-3.1-5c-0.7-1.9-1.1-4-1.1-6.2c0-2.3,0.4-4.4,1.2-6.4c0.8-1.9,1.9-3.6,3.3-5
			c1.4-1.4,3.1-2.5,5.1-3.2c2-0.8,4.1-1.2,6.4-1.2c2.2,0,4.2,0.4,6,1.1c1.8,0.7,3.4,1.7,4.7,3.1c1.3,1.3,2.3,3,3,4.9
			c0.7,1.9,1.1,4.2,1.1,6.6v1.6h-25.3c0.1,1.3,0.4,2.5,1,3.7c0.6,1.2,1.3,2.2,2.2,3.1c0.9,0.9,1.9,1.6,3.1,2.1
			c1.2,0.5,2.5,0.8,3.9,0.8c2.3,0,4.2-0.4,5.8-1.2c1.6-0.8,3-1.9,4.2-3.4L250.8,212.5z M246.4,200.3c-0.1-2.6-1-4.6-2.6-6.2
			c-1.7-1.5-3.9-2.3-6.8-2.3c-2.9,0-5.2,0.8-7,2.3c-1.8,1.5-2.9,3.6-3.2,6.2H246.4z"/>
		<path fill="#5D5D5D" d="M260.1,195.1c0-1.4,0-2.6-0.1-3.8c-0.1-1.2-0.1-2.3-0.1-3.3h5c0,0.8,0,1.6,0.1,2.4c0,0.8,0.1,1.6,0.1,2.5
			h0.1c0.4-0.7,0.9-1.4,1.5-2.1c0.6-0.7,1.4-1.3,2.3-1.8c0.9-0.5,1.9-1,3-1.3c1.1-0.3,2.3-0.5,3.6-0.5c2.1,0,3.8,0.3,5.3,0.9
			c1.5,0.6,2.7,1.4,3.7,2.5c1,1.1,1.7,2.4,2.2,3.9c0.5,1.5,0.7,3.2,0.7,5V218h-5.2v-18c0-2.5-0.6-4.5-1.7-6c-1.2-1.5-3-2.2-5.4-2.2
			c-1.7,0-3.2,0.3-4.4,0.8c-1.2,0.6-2.2,1.3-3,2.4c-0.8,1-1.4,2.2-1.7,3.7c-0.4,1.4-0.6,3-0.6,4.7V218h-5.2V195.1z"/>
		<path fill="#5D5D5D" d="M325.3,212.5c-1.9,2.3-3.9,3.9-6.2,4.8c-2.2,0.9-4.8,1.4-7.8,1.4c-2.5,0-4.7-0.4-6.6-1.2
			c-2-0.8-3.6-2-5-3.4c-1.4-1.4-2.4-3.1-3.1-5c-0.7-1.9-1.1-4-1.1-6.2c0-2.3,0.4-4.4,1.2-6.4c0.8-1.9,1.9-3.6,3.3-5
			c1.4-1.4,3.1-2.5,5.1-3.2c2-0.8,4.1-1.2,6.4-1.2c2.2,0,4.2,0.4,6,1.1c1.8,0.7,3.4,1.7,4.7,3.1c1.3,1.3,2.3,3,3,4.9
			c0.7,1.9,1.1,4.2,1.1,6.6v1.6h-25.3c0.1,1.3,0.4,2.5,1,3.7c0.6,1.2,1.3,2.2,2.2,3.1c0.9,0.9,1.9,1.6,3.1,2.1
			c1.2,0.5,2.5,0.8,3.9,0.8c2.3,0,4.2-0.4,5.8-1.2c1.6-0.8,3-1.9,4.2-3.4L325.3,212.5z M320.8,200.3c-0.1-2.6-1-4.6-2.6-6.2
			c-1.7-1.5-3.9-2.3-6.8-2.3c-2.9,0-5.2,0.8-7,2.3c-1.8,1.5-2.9,3.6-3.2,6.2H320.8z"/>
		<path fill="#5D5D5D" d="M338.9,210.7c1.1,0,2.1,0.4,2.8,1.1c0.8,0.7,1.2,1.7,1.2,2.7c0,1.1-0.4,2-1.2,2.7
			c-0.8,0.7-1.8,1.1-2.8,1.1s-2-0.4-2.8-1.1c-0.8-0.7-1.2-1.7-1.2-2.7c0-1.1,0.4-2,1.2-2.7C336.8,211,337.7,210.7,338.9,210.7z
			 M341.7,205.3H336v-32.7h5.6V205.3z"/>
	</g>
	<path fill="#3E97CF" d="M294.9,74.4c-0.4-0.1-1.4-0.3-2.3-0.3c-10.1,0.1-20.2,0.2-30.3,0.3c-3.2,0-6,0.9-5.8,4.6
		c0.2,3.6,3,4.4,6.2,4.4c7.4,0,14.8,0.2,22.2,0c3.3-0.1,6.6,0.4,9.9-0.6c2.1-0.7,3.3-2,3.3-4.1C297.9,77,297.2,75.5,294.9,74.4"/>
	<path fill="#3E97CF" d="M255,60.7c8-7.3,15.8-14.8,23.7-22.2c1.3-2.6,1.4-4.9-0.8-6.9c-2.5-2.2-4.8-0.8-6.7,0.9
		c-7.4,7.1-14.8,14.2-22.1,21.4c-2.3,2.2-1.7,4.4,0.2,6.5C251,62.4,253.4,62.2,255,60.7"/>
	<path fill="#3E97CF" d="M255,96.7c8,7.3,15.8,14.8,23.7,22.2c1.3,2.6,1.4,4.9-0.8,6.9c-2.5,2.2-4.8,0.8-6.7-0.9
		c-7.4-7.1-14.8-14.2-22.1-21.4c-2.3-2.2-1.7-4.4,0.2-6.5C251,95,253.4,95.2,255,96.7"/>
	<path fill="#F2AE2E" d="M54.3,67.2c-0.1,2.9-0.4,5.8,0.5,8.7c-0.1,6.6-0.1,13.3-0.2,20c0.1-6.7,0.1-13.3,0.2-20
		C53.9,73.1,54.3,70.2,54.3,67.2"/>
	<path fill="#3E97CF" d="M241.3,133.1c-0.1-21.8-0.3-43.6-0.4-65.4c-0.1-20.3-0.2-40.6-0.3-60.9c0-2.4-0.3-5-3-6.3
		c-3.1-1.4-5.1,0.5-7.1,2.4c-5.9,5.6-13.1,8.6-21.4,9.2c-4.4,0.3-6.5,2.6-6.2,6.5c0.4,4.2-1.9,5.3-5.5,6.2
		c-20.3,5-40.7,10.2-61,15.3v0.3c-5,1.3-9.9,2.5-14.9,3.8C106.5,48,91.4,51.7,76.5,56c-8.3,2.3-15.5,1.6-22.7-3
		c-5.5-3.5-8.6-2-8.7,4.2c-0.2,15.5-0.1,30.9,0.1,46.4c0.1,6.1,4,7.7,9.4,4c6.4-4.3,13-5.6,20.4-3c2.2,0.8,4.5,1.2,6.8,1.7
		c7.1,1.6,7.1,1.6,3.6,7.5c-1.7,2.9-3.3,6-5.3,8.7c-2.2,3.1-1.5,4.8,1.8,6.5c9.1,4.7,18,9.7,27,14.6c8.6,4.7,17.2,9.5,25.9,14.1
		c2.4,1.3,5,2.2,7.5,2.6l0,0.2c9.1,1.2,18.1-2.9,23.2-11.3c2.8-4.7,5.8-9.3,8.3-14.1c1.6-2.9,3.3-4.2,6.9-3.2
		c6.1,1.8,12.4,3.2,18.5,4.9c2.3,0.6,4.3,1.7,4.5,4.5c0.2,3.3,2.8,4.4,5.6,4.5c9.5,0.2,17.1,3.9,23.6,10.4c1.4,1.4,3.2,2.2,5.3,1.3
		c2.2-1,3.1-2.6,3.1-4.9C241.3,146.1,241.4,139.6,241.3,133.1 M63.9,86.1c0.1,8.2,0.1,8.2-9.3,9.8c0.1-6.7,0.1-13.3,0.2-20
		c-0.9-2.9-0.6-5.8-0.5-8.7c0-1,0-2-0.1-2.9c11.3,2.3,11.3,2.3,9.3,11.9C63.7,79.5,63.9,82.8,63.9,86.1 M163.9,134
		c-2.1,2.9-3.7,6.1-5.5,9.2c-4.2,6.9-9.9,9.6-16.7,7.8l-0.1-0.3c-1.3-0.4-2.5-1-3.9-1.7c-7-3.7-13.9-7.6-20.8-11.3
		c-7.4-4.1-14.8-8.2-22.4-12.1c-3-1.6-3.8-2.9-2-6.1c5.1-8.9,4.9-9,15.3-6.4c10,2.5,20,5.2,30.1,7.7v0.3c7.6,2,15.2,3.9,22.9,5.8
		C165.9,128.1,166.9,129.9,163.9,134 M203.2,127.2c-1.8,1.3-3.4,0.3-4.9-0.1c-19.8-5-39.6-10.1-59.3-15.2v-0.3
		c-0.7-0.2-1.5-0.4-2.2-0.6c-19.5-5-39-10.2-58.6-15c-3.5-0.9-4.7-2.2-4.5-5.6c0.3-6.9,0.2-13.8,0-20.7c-0.1-2.6,0.4-4.1,3.3-4.9
		c20.2-5.1,40.4-10.1,60.6-15.2v-0.3c20.4-5.1,40.7-10.3,61.1-15.4c3.5-0.9,4.3-0.2,4.3,3.3c0.1,28.9,0.3,57.8,0.5,86.6
		C203.4,125,203.3,126.1,203.2,127.2 M231.2,142.3c-5.3-1.8-10.3-4.3-15.9-5.1c-3.4-0.5-2.1-3.1-2.1-4.9
		c-0.2-21.2-0.3-42.5-0.5-63.7c-0.1-14.2,0-28.3-0.3-42.5c-0.1-3.7,1.1-5.3,4.9-6c3-0.5,6.1-1.5,8.7-3c5-3,5.1-0.5,5.1,3.4
		c0,21.2,0.2,42.5,0.3,63.7c0.1,17.5,0.2,35,0.3,52.5C231.7,138.5,232.2,140.4,231.2,142.3"/>
</g>
</svg>
